<mxfile host="65bd71144e">
    <diagram name="Page-1" id="KoD-sisSPgoSJ2_ljXhh">
        <mxGraphModel dx="358" dy="203" grid="0" gridSize="10" guides="1" tooltips="1" connect="1" arrows="1" fold="1" page="1" pageScale="1" pageWidth="1100" pageHeight="850" math="0" shadow="0">
            <root>
                <mxCell id="0"/>
                <mxCell id="1" parent="0"/>
                <mxCell id="5e0h5vSC8ZfATbpdGrQT-1" value="USER" style="rounded=0;whiteSpace=wrap;html=1;fillColor=none;" parent="1" vertex="1">
                    <mxGeometry x="286" y="354" width="110" height="50" as="geometry"/>
                </mxCell>
                <mxCell id="5e0h5vSC8ZfATbpdGrQT-2" value="" style="endArrow=none;html=1;rounded=0;exitX=-0.001;exitY=0.437;exitDx=0;exitDy=0;exitPerimeter=0;" parent="1" source="5e0h5vSC8ZfATbpdGrQT-1" target="5e0h5vSC8ZfATbpdGrQT-3" edge="1">
                    <mxGeometry width="50" height="50" relative="1" as="geometry">
                        <mxPoint x="286" y="376.5" as="sourcePoint"/>
                        <mxPoint x="536" y="514" as="targetPoint"/>
                        <Array as="points">
                            <mxPoint x="276" y="369"/>
                        </Array>
                    </mxGeometry>
                </mxCell>
                <mxCell id="5e0h5vSC8ZfATbpdGrQT-3" value="" style="ellipse;whiteSpace=wrap;html=1;aspect=fixed;fillColor=none;" parent="1" vertex="1">
                    <mxGeometry x="256" y="364" width="10" height="10" as="geometry"/>
                </mxCell>
                <mxCell id="5e0h5vSC8ZfATbpdGrQT-4" value="" style="endArrow=none;html=1;rounded=0;exitX=0;exitY=0.5;exitDx=0;exitDy=0;" parent="1" target="5e0h5vSC8ZfATbpdGrQT-5" edge="1">
                    <mxGeometry width="50" height="50" relative="1" as="geometry">
                        <mxPoint x="286" y="389" as="sourcePoint"/>
                        <mxPoint x="546" y="524" as="targetPoint"/>
                        <Array as="points">
                            <mxPoint x="276" y="389"/>
                        </Array>
                    </mxGeometry>
                </mxCell>
                <mxCell id="5e0h5vSC8ZfATbpdGrQT-5" value="" style="ellipse;whiteSpace=wrap;html=1;aspect=fixed;fillColor=none;" parent="1" vertex="1">
                    <mxGeometry x="256" y="384" width="10" height="10" as="geometry"/>
                </mxCell>
                <mxCell id="5e0h5vSC8ZfATbpdGrQT-6" value="" style="endArrow=none;html=1;rounded=0;exitX=0;exitY=0.75;exitDx=0;exitDy=0;" parent="1" target="5e0h5vSC8ZfATbpdGrQT-7" edge="1">
                    <mxGeometry width="50" height="50" relative="1" as="geometry">
                        <mxPoint x="286" y="401.5" as="sourcePoint"/>
                        <mxPoint x="556" y="534" as="targetPoint"/>
                        <Array as="points">
                            <mxPoint x="276" y="409"/>
                        </Array>
                    </mxGeometry>
                </mxCell>
                <mxCell id="5e0h5vSC8ZfATbpdGrQT-7" value="" style="ellipse;whiteSpace=wrap;html=1;aspect=fixed;fillColor=none;" parent="1" vertex="1">
                    <mxGeometry x="256" y="404" width="10" height="10" as="geometry"/>
                </mxCell>
                <mxCell id="5e0h5vSC8ZfATbpdGrQT-8" value="name" style="text;html=1;align=center;verticalAlign=middle;resizable=0;points=[];autosize=1;strokeColor=none;fillColor=none;" parent="1" vertex="1">
                    <mxGeometry x="211" y="354" width="50" height="30" as="geometry"/>
                </mxCell>
                <mxCell id="5e0h5vSC8ZfATbpdGrQT-9" value="email" style="text;html=1;align=center;verticalAlign=middle;resizable=0;points=[];autosize=1;strokeColor=none;fillColor=none;" parent="1" vertex="1">
                    <mxGeometry x="211" y="374" width="50" height="30" as="geometry"/>
                </mxCell>
                <mxCell id="5e0h5vSC8ZfATbpdGrQT-10" value="password" style="text;html=1;align=center;verticalAlign=middle;resizable=0;points=[];autosize=1;strokeColor=none;fillColor=none;" parent="1" vertex="1">
                    <mxGeometry x="191" y="394" width="70" height="30" as="geometry"/>
                </mxCell>
                <mxCell id="5e0h5vSC8ZfATbpdGrQT-12" value="" style="endArrow=none;html=1;rounded=0;exitX=0;exitY=0.25;exitDx=0;exitDy=0;" parent="1" target="5e0h5vSC8ZfATbpdGrQT-13" edge="1">
                    <mxGeometry width="50" height="50" relative="1" as="geometry">
                        <mxPoint x="286" y="357" as="sourcePoint"/>
                        <mxPoint x="536" y="494" as="targetPoint"/>
                        <Array as="points">
                            <mxPoint x="276" y="349"/>
                        </Array>
                    </mxGeometry>
                </mxCell>
                <mxCell id="5e0h5vSC8ZfATbpdGrQT-13" value="" style="ellipse;whiteSpace=wrap;html=1;aspect=fixed;fillColor=none;" parent="1" vertex="1">
                    <mxGeometry x="256" y="344" width="10" height="10" as="geometry"/>
                </mxCell>
                <mxCell id="5e0h5vSC8ZfATbpdGrQT-14" value="id" style="text;html=1;align=center;verticalAlign=middle;resizable=0;points=[];autosize=1;strokeColor=none;fillColor=none;" parent="1" vertex="1">
                    <mxGeometry x="231" y="334" width="30" height="30" as="geometry"/>
                </mxCell>
                <mxCell id="5e0h5vSC8ZfATbpdGrQT-18" value="" style="ellipse;whiteSpace=wrap;html=1;aspect=fixed;fillColor=light-dark(#FFFFFF,#FFFFFF);" parent="1" vertex="1">
                    <mxGeometry x="256" y="344" width="10" height="10" as="geometry"/>
                </mxCell>
                <mxCell id="5e0h5vSC8ZfATbpdGrQT-28" value="DOCTOR" style="rounded=0;whiteSpace=wrap;html=1;fillColor=none;" parent="1" vertex="1">
                    <mxGeometry x="490" y="474" width="110" height="50" as="geometry"/>
                </mxCell>
                <mxCell id="5e0h5vSC8ZfATbpdGrQT-29" value="creates" style="rhombus;whiteSpace=wrap;html=1;fillColor=none;" parent="1" vertex="1">
                    <mxGeometry x="276" y="469" width="120" height="60" as="geometry"/>
                </mxCell>
                <mxCell id="5e0h5vSC8ZfATbpdGrQT-30" value="" style="endArrow=none;html=1;rounded=0;entryX=0.453;entryY=0.997;entryDx=0;entryDy=0;exitX=0.5;exitY=0;exitDx=0;exitDy=0;entryPerimeter=0;" parent="1" source="5e0h5vSC8ZfATbpdGrQT-29" target="5e0h5vSC8ZfATbpdGrQT-1" edge="1">
                    <mxGeometry width="50" height="50" relative="1" as="geometry">
                        <mxPoint x="226" y="388" as="sourcePoint"/>
                        <mxPoint x="336" y="403" as="targetPoint"/>
                    </mxGeometry>
                </mxCell>
                <mxCell id="5e0h5vSC8ZfATbpdGrQT-31" value="" style="endArrow=none;html=1;rounded=0;entryX=1;entryY=0.5;entryDx=0;entryDy=0;exitX=0;exitY=0.5;exitDx=0;exitDy=0;" parent="1" source="5e0h5vSC8ZfATbpdGrQT-28" target="5e0h5vSC8ZfATbpdGrQT-29" edge="1">
                    <mxGeometry width="50" height="50" relative="1" as="geometry">
                        <mxPoint x="356" y="469" as="sourcePoint"/>
                        <mxPoint x="346" y="424" as="targetPoint"/>
                    </mxGeometry>
                </mxCell>
                <mxCell id="5e0h5vSC8ZfATbpdGrQT-43" value="(0, n)" style="text;html=1;align=center;verticalAlign=middle;resizable=0;points=[];autosize=1;strokeColor=none;fillColor=none;" parent="1" vertex="1">
                    <mxGeometry x="328" y="399" width="50" height="30" as="geometry"/>
                </mxCell>
                <mxCell id="5e0h5vSC8ZfATbpdGrQT-44" value="(1, 1)" style="text;html=1;align=center;verticalAlign=middle;resizable=0;points=[];autosize=1;strokeColor=none;fillColor=none;" parent="1" vertex="1">
                    <mxGeometry x="442" y="474" width="50" height="30" as="geometry"/>
                </mxCell>
                <mxCell id="D14aTk9Bp_k3A3aO7_cn-1" value="APPOINTMENT" style="rounded=0;whiteSpace=wrap;html=1;fillColor=none;" parent="1" vertex="1">
                    <mxGeometry x="690" y="353" width="110" height="50" as="geometry"/>
                </mxCell>
                <mxCell id="D14aTk9Bp_k3A3aO7_cn-2" value="creates" style="rhombus;whiteSpace=wrap;html=1;fillColor=none;" parent="1" vertex="1">
                    <mxGeometry x="484.5" y="349" width="120" height="60" as="geometry"/>
                </mxCell>
                <mxCell id="D14aTk9Bp_k3A3aO7_cn-3" value="" style="endArrow=none;html=1;rounded=0;entryX=1;entryY=0.5;entryDx=0;entryDy=0;exitX=0;exitY=0.5;exitDx=0;exitDy=0;" parent="1" source="D14aTk9Bp_k3A3aO7_cn-1" target="D14aTk9Bp_k3A3aO7_cn-2" edge="1">
                    <mxGeometry width="50" height="50" relative="1" as="geometry">
                        <mxPoint x="306" y="468" as="sourcePoint"/>
                        <mxPoint x="306" y="413" as="targetPoint"/>
                    </mxGeometry>
                </mxCell>
                <mxCell id="D14aTk9Bp_k3A3aO7_cn-4" value="" style="endArrow=none;html=1;rounded=0;entryX=0;entryY=0.5;entryDx=0;entryDy=0;exitX=1;exitY=0.5;exitDx=0;exitDy=0;" parent="1" target="D14aTk9Bp_k3A3aO7_cn-2" edge="1">
                    <mxGeometry width="50" height="50" relative="1" as="geometry">
                        <mxPoint x="396" y="378" as="sourcePoint"/>
                        <mxPoint x="651" y="408" as="targetPoint"/>
                    </mxGeometry>
                </mxCell>
                <mxCell id="D14aTk9Bp_k3A3aO7_cn-5" value="" style="endArrow=none;html=1;rounded=0;entryX=0;entryY=0.5;entryDx=0;entryDy=0;exitX=0.72;exitY=1.002;exitDx=0;exitDy=0;exitPerimeter=0;" parent="1" source="5e0h5vSC8ZfATbpdGrQT-28" target="D14aTk9Bp_k3A3aO7_cn-6" edge="1">
                    <mxGeometry width="50" height="50" relative="1" as="geometry">
                        <mxPoint x="569" y="524" as="sourcePoint"/>
                        <mxPoint x="644" y="294" as="targetPoint"/>
                        <Array as="points"/>
                    </mxGeometry>
                </mxCell>
                <mxCell id="D14aTk9Bp_k3A3aO7_cn-6" value="" style="ellipse;whiteSpace=wrap;html=1;aspect=fixed;fillColor=light-dark(#FFFFFF,#F9FBFF);direction=south;" parent="1" vertex="1">
                    <mxGeometry x="564" y="544" width="10" height="10" as="geometry"/>
                </mxCell>
                <mxCell id="D14aTk9Bp_k3A3aO7_cn-7" value="" style="endArrow=none;html=1;rounded=0;exitX=0.59;exitY=1.002;exitDx=0;exitDy=0;entryX=0;entryY=0.5;entryDx=0;entryDy=0;exitPerimeter=0;" parent="1" source="5e0h5vSC8ZfATbpdGrQT-28" target="D14aTk9Bp_k3A3aO7_cn-8" edge="1">
                    <mxGeometry width="50" height="50" relative="1" as="geometry">
                        <mxPoint x="600" y="499" as="sourcePoint"/>
                        <mxPoint x="654" y="304" as="targetPoint"/>
                        <Array as="points"/>
                    </mxGeometry>
                </mxCell>
                <mxCell id="D14aTk9Bp_k3A3aO7_cn-8" value="" style="ellipse;whiteSpace=wrap;html=1;aspect=fixed;fillColor=none;direction=south;" parent="1" vertex="1">
                    <mxGeometry x="550" y="562" width="10" height="10" as="geometry"/>
                </mxCell>
                <mxCell id="D14aTk9Bp_k3A3aO7_cn-10" value="" style="ellipse;whiteSpace=wrap;html=1;aspect=fixed;fillColor=none;direction=south;" parent="1" vertex="1">
                    <mxGeometry x="534" y="543" width="10" height="10" as="geometry"/>
                </mxCell>
                <mxCell id="D14aTk9Bp_k3A3aO7_cn-11" value="id" style="text;html=1;align=center;verticalAlign=middle;resizable=0;points=[];autosize=1;strokeColor=none;fillColor=none;" parent="1" vertex="1">
                    <mxGeometry x="568" y="532" width="30" height="30" as="geometry"/>
                </mxCell>
                <mxCell id="D14aTk9Bp_k3A3aO7_cn-12" value="name" style="text;html=1;align=center;verticalAlign=middle;resizable=0;points=[];autosize=1;strokeColor=none;fillColor=none;" parent="1" vertex="1">
                    <mxGeometry x="554.5" y="552" width="50" height="30" as="geometry"/>
                </mxCell>
                <mxCell id="D14aTk9Bp_k3A3aO7_cn-13" value="genre" style="text;html=1;align=center;verticalAlign=middle;resizable=0;points=[];autosize=1;strokeColor=none;fillColor=none;" parent="1" vertex="1">
                    <mxGeometry x="490" y="532" width="50" height="30" as="geometry"/>
                </mxCell>
                <mxCell id="D14aTk9Bp_k3A3aO7_cn-15" value="" style="endArrow=none;html=1;rounded=0;entryX=0.447;entryY=1.004;entryDx=0;entryDy=0;exitX=0;exitY=0.5;exitDx=0;exitDy=0;entryPerimeter=0;" parent="1" source="D14aTk9Bp_k3A3aO7_cn-10" target="5e0h5vSC8ZfATbpdGrQT-28" edge="1">
                    <mxGeometry width="50" height="50" relative="1" as="geometry">
                        <mxPoint x="579" y="534" as="sourcePoint"/>
                        <mxPoint x="579" y="552" as="targetPoint"/>
                        <Array as="points"/>
                    </mxGeometry>
                </mxCell>
                <mxCell id="D14aTk9Bp_k3A3aO7_cn-17" value="" style="endArrow=none;html=1;rounded=0;entryX=0.5;entryY=1;entryDx=0;entryDy=0;exitX=0.996;exitY=0.418;exitDx=0;exitDy=0;exitPerimeter=0;" parent="1" target="D14aTk9Bp_k3A3aO7_cn-18" edge="1">
                    <mxGeometry width="50" height="50" relative="1" as="geometry">
                        <mxPoint x="800.0000000000002" y="354.9" as="sourcePoint"/>
                        <mxPoint x="585.6600000000001" y="278" as="targetPoint"/>
                        <Array as="points"/>
                    </mxGeometry>
                </mxCell>
                <mxCell id="D14aTk9Bp_k3A3aO7_cn-18" value="" style="ellipse;whiteSpace=wrap;html=1;aspect=fixed;fillColor=none;direction=south;" parent="1" vertex="1">
                    <mxGeometry x="825.6600000000001" y="350" width="10" height="10" as="geometry"/>
                </mxCell>
                <mxCell id="D14aTk9Bp_k3A3aO7_cn-19" value="is assigned" style="rhombus;whiteSpace=wrap;html=1;fillColor=none;" parent="1" vertex="1">
                    <mxGeometry x="685" y="468" width="120" height="60" as="geometry"/>
                </mxCell>
                <mxCell id="D14aTk9Bp_k3A3aO7_cn-20" value="" style="endArrow=none;html=1;rounded=0;entryX=0;entryY=0.5;entryDx=0;entryDy=0;exitX=1;exitY=0.5;exitDx=0;exitDy=0;" parent="1" source="5e0h5vSC8ZfATbpdGrQT-28" target="D14aTk9Bp_k3A3aO7_cn-19" edge="1">
                    <mxGeometry width="50" height="50" relative="1" as="geometry">
                        <mxPoint x="620" y="306" as="sourcePoint"/>
                        <mxPoint x="770" y="306" as="targetPoint"/>
                    </mxGeometry>
                </mxCell>
                <mxCell id="D14aTk9Bp_k3A3aO7_cn-21" value="" style="endArrow=none;html=1;rounded=0;entryX=0.5;entryY=1;entryDx=0;entryDy=0;exitX=0.5;exitY=0;exitDx=0;exitDy=0;" parent="1" target="D14aTk9Bp_k3A3aO7_cn-1" edge="1">
                    <mxGeometry width="50" height="50" relative="1" as="geometry">
                        <mxPoint x="745" y="469" as="sourcePoint"/>
                        <mxPoint x="560" y="419" as="targetPoint"/>
                    </mxGeometry>
                </mxCell>
                <mxCell id="D14aTk9Bp_k3A3aO7_cn-22" value="(0, n)" style="text;html=1;align=center;verticalAlign=middle;resizable=0;points=[];autosize=1;strokeColor=none;fillColor=none;" parent="1" vertex="1">
                    <mxGeometry x="391" y="353" width="50" height="30" as="geometry"/>
                </mxCell>
                <mxCell id="D14aTk9Bp_k3A3aO7_cn-23" value="(1, 1)" style="text;html=1;align=center;verticalAlign=middle;resizable=0;points=[];autosize=1;strokeColor=none;fillColor=none;" parent="1" vertex="1">
                    <mxGeometry x="645" y="351" width="50" height="30" as="geometry"/>
                </mxCell>
                <mxCell id="D14aTk9Bp_k3A3aO7_cn-24" value="(0, n)" style="text;html=1;align=center;verticalAlign=middle;resizable=0;points=[];autosize=1;strokeColor=none;fillColor=none;" parent="1" vertex="1">
                    <mxGeometry x="596" y="474" width="50" height="30" as="geometry"/>
                </mxCell>
                <mxCell id="D14aTk9Bp_k3A3aO7_cn-25" value="(0, 1)" style="text;html=1;align=center;verticalAlign=middle;resizable=0;points=[];autosize=1;strokeColor=none;fillColor=none;" parent="1" vertex="1">
                    <mxGeometry x="700" y="399" width="50" height="30" as="geometry"/>
                </mxCell>
                <mxCell id="D14aTk9Bp_k3A3aO7_cn-26" value="datetime" style="text;html=1;align=center;verticalAlign=middle;resizable=0;points=[];autosize=1;strokeColor=none;fillColor=none;" parent="1" vertex="1">
                    <mxGeometry x="825.6600000000001" y="340" width="70" height="30" as="geometry"/>
                </mxCell>
                <mxCell id="D14aTk9Bp_k3A3aO7_cn-30" value="" style="endArrow=none;html=1;rounded=0;entryX=0.5;entryY=1;entryDx=0;entryDy=0;exitX=1;exitY=0.75;exitDx=0;exitDy=0;" parent="1" target="D14aTk9Bp_k3A3aO7_cn-31" edge="1">
                    <mxGeometry width="50" height="50" relative="1" as="geometry">
                        <mxPoint x="800.44" y="371.5" as="sourcePoint"/>
                        <mxPoint x="590.6600000000001" y="302" as="targetPoint"/>
                        <Array as="points"/>
                    </mxGeometry>
                </mxCell>
                <mxCell id="D14aTk9Bp_k3A3aO7_cn-31" value="" style="ellipse;whiteSpace=wrap;html=1;aspect=fixed;fillColor=none;direction=south;" parent="1" vertex="1">
                    <mxGeometry x="825.6600000000001" y="367" width="10" height="10" as="geometry"/>
                </mxCell>
                <mxCell id="D14aTk9Bp_k3A3aO7_cn-32" value="status" style="text;html=1;align=center;verticalAlign=middle;resizable=0;points=[];autosize=1;strokeColor=none;fillColor=none;" parent="1" vertex="1">
                    <mxGeometry x="824" y="357" width="60" height="30" as="geometry"/>
                </mxCell>
                <mxCell id="D14aTk9Bp_k3A3aO7_cn-34" value="" style="endArrow=none;html=1;rounded=0;entryX=0.5;entryY=1;entryDx=0;entryDy=0;exitX=0.926;exitY=-0.002;exitDx=0;exitDy=0;exitPerimeter=0;" parent="1" source="D14aTk9Bp_k3A3aO7_cn-1" target="D14aTk9Bp_k3A3aO7_cn-35" edge="1">
                    <mxGeometry width="50" height="50" relative="1" as="geometry">
                        <mxPoint x="793.1800000000001" y="351.79999999999995" as="sourcePoint"/>
                        <mxPoint x="585.6600000000001" y="259" as="targetPoint"/>
                        <Array as="points">
                            <mxPoint x="808" y="338"/>
                        </Array>
                    </mxGeometry>
                </mxCell>
                <mxCell id="D14aTk9Bp_k3A3aO7_cn-35" value="" style="ellipse;whiteSpace=wrap;html=1;aspect=fixed;fillColor=light-dark(#FFFFFF,#F9FBFF);direction=south;" parent="1" vertex="1">
                    <mxGeometry x="825.6600000000001" y="333" width="10" height="10" as="geometry"/>
                </mxCell>
                <mxCell id="D14aTk9Bp_k3A3aO7_cn-36" value="id" style="text;html=1;align=center;verticalAlign=middle;resizable=0;points=[];autosize=1;strokeColor=none;fillColor=none;" parent="1" vertex="1">
                    <mxGeometry x="827.6600000000001" y="322" width="30" height="30" as="geometry"/>
                </mxCell>
                <mxCell id="D14aTk9Bp_k3A3aO7_cn-42" value="" style="endArrow=none;html=1;rounded=0;entryX=0.5;entryY=0;entryDx=0;entryDy=0;exitX=0.5;exitY=1;exitDx=0;exitDy=0;" parent="1" source="D14aTk9Bp_k3A3aO7_cn-43" target="5e0h5vSC8ZfATbpdGrQT-1" edge="1">
                    <mxGeometry width="50" height="50" relative="1" as="geometry">
                        <mxPoint x="366" y="298" as="sourcePoint"/>
                        <mxPoint x="366" y="353" as="targetPoint"/>
                    </mxGeometry>
                </mxCell>
                <mxCell id="D14aTk9Bp_k3A3aO7_cn-43" value="creates" style="rhombus;whiteSpace=wrap;html=1;fillColor=none;" parent="1" vertex="1">
                    <mxGeometry x="281" y="214" width="120" height="60" as="geometry"/>
                </mxCell>
                <mxCell id="D14aTk9Bp_k3A3aO7_cn-44" value="PATIENT" style="rounded=0;whiteSpace=wrap;html=1;fillColor=none;" parent="1" vertex="1">
                    <mxGeometry x="490" y="219" width="110" height="50" as="geometry"/>
                </mxCell>
                <mxCell id="D14aTk9Bp_k3A3aO7_cn-45" value="" style="endArrow=none;html=1;rounded=0;entryX=1;entryY=0.5;entryDx=0;entryDy=0;exitX=0;exitY=0.5;exitDx=0;exitDy=0;" parent="1" source="D14aTk9Bp_k3A3aO7_cn-44" target="D14aTk9Bp_k3A3aO7_cn-43" edge="1">
                    <mxGeometry width="50" height="50" relative="1" as="geometry">
                        <mxPoint x="378" y="283" as="sourcePoint"/>
                        <mxPoint x="376" y="363" as="targetPoint"/>
                    </mxGeometry>
                </mxCell>
                <mxCell id="pxB9osVp5WJR0z6cPD1y-1" value="reserves" style="rhombus;whiteSpace=wrap;html=1;fillColor=none;" parent="1" vertex="1">
                    <mxGeometry x="685" y="214" width="120" height="60" as="geometry"/>
                </mxCell>
                <mxCell id="pxB9osVp5WJR0z6cPD1y-2" value="" style="endArrow=none;html=1;rounded=0;entryX=1;entryY=0.5;entryDx=0;entryDy=0;exitX=0;exitY=0.5;exitDx=0;exitDy=0;" parent="1" source="pxB9osVp5WJR0z6cPD1y-1" target="D14aTk9Bp_k3A3aO7_cn-44" edge="1">
                    <mxGeometry width="50" height="50" relative="1" as="geometry">
                        <mxPoint x="511" y="253" as="sourcePoint"/>
                        <mxPoint x="436" y="253" as="targetPoint"/>
                    </mxGeometry>
                </mxCell>
                <mxCell id="pxB9osVp5WJR0z6cPD1y-3" value="" style="endArrow=none;html=1;rounded=0;entryX=0.5;entryY=0;entryDx=0;entryDy=0;exitX=0.5;exitY=1;exitDx=0;exitDy=0;" parent="1" source="pxB9osVp5WJR0z6cPD1y-1" target="D14aTk9Bp_k3A3aO7_cn-1" edge="1">
                    <mxGeometry width="50" height="50" relative="1" as="geometry">
                        <mxPoint x="700" y="253" as="sourcePoint"/>
                        <mxPoint x="605" y="253" as="targetPoint"/>
                    </mxGeometry>
                </mxCell>
                <mxCell id="pxB9osVp5WJR0z6cPD1y-4" value="(0, n)" style="text;html=1;align=center;verticalAlign=middle;resizable=0;points=[];autosize=1;strokeColor=none;fillColor=none;" parent="1" vertex="1">
                    <mxGeometry x="359" y="325" width="50" height="30" as="geometry"/>
                </mxCell>
                <mxCell id="pxB9osVp5WJR0z6cPD1y-5" value="(1, 1)" style="text;html=1;align=center;verticalAlign=middle;resizable=0;points=[];autosize=1;strokeColor=none;fillColor=none;" parent="1" vertex="1">
                    <mxGeometry x="445" y="239" width="50" height="30" as="geometry"/>
                </mxCell>
                <mxCell id="pxB9osVp5WJR0z6cPD1y-6" value="(0, n)" style="text;html=1;align=center;verticalAlign=middle;resizable=0;points=[];autosize=1;strokeColor=none;fillColor=none;" parent="1" vertex="1">
                    <mxGeometry x="595" y="239" width="50" height="30" as="geometry"/>
                </mxCell>
                <mxCell id="pxB9osVp5WJR0z6cPD1y-7" value="(1, 1)" style="text;html=1;align=center;verticalAlign=middle;resizable=0;points=[];autosize=1;strokeColor=none;fillColor=none;" parent="1" vertex="1">
                    <mxGeometry x="739" y="326" width="50" height="30" as="geometry"/>
                </mxCell>
                <mxCell id="pxB9osVp5WJR0z6cPD1y-15" value="" style="endArrow=none;html=1;rounded=0;exitX=0.683;exitY=0.005;exitDx=0;exitDy=0;entryX=1;entryY=0.5;entryDx=0;entryDy=0;exitPerimeter=0;" parent="1" source="D14aTk9Bp_k3A3aO7_cn-44" target="pxB9osVp5WJR0z6cPD1y-17" edge="1">
                    <mxGeometry width="50" height="50" relative="1" as="geometry">
                        <mxPoint x="535" y="219" as="sourcePoint"/>
                        <mxPoint x="541" y="189" as="targetPoint"/>
                        <Array as="points"/>
                    </mxGeometry>
                </mxCell>
                <mxCell id="pxB9osVp5WJR0z6cPD1y-16" value="" style="endArrow=none;html=1;rounded=0;entryX=1;entryY=0.5;entryDx=0;entryDy=0;" parent="1" target="pxB9osVp5WJR0z6cPD1y-18" edge="1">
                    <mxGeometry width="50" height="50" relative="1" as="geometry">
                        <mxPoint x="588" y="219" as="sourcePoint"/>
                        <mxPoint x="588" y="179" as="targetPoint"/>
                        <Array as="points"/>
                    </mxGeometry>
                </mxCell>
                <mxCell id="pxB9osVp5WJR0z6cPD1y-17" value="" style="ellipse;whiteSpace=wrap;html=1;aspect=fixed;fillColor=none;direction=south;" parent="1" vertex="1">
                    <mxGeometry x="560" y="186" width="10" height="10" as="geometry"/>
                </mxCell>
                <mxCell id="pxB9osVp5WJR0z6cPD1y-18" value="" style="ellipse;whiteSpace=wrap;html=1;aspect=fixed;fillColor=light-dark(#FFFFFF,#F9FBFF);direction=south;" parent="1" vertex="1">
                    <mxGeometry x="583" y="199" width="10" height="10" as="geometry"/>
                </mxCell>
                <mxCell id="pxB9osVp5WJR0z6cPD1y-19" value="name" style="text;html=1;align=center;verticalAlign=middle;resizable=0;points=[];autosize=1;strokeColor=none;fillColor=none;" parent="1" vertex="1">
                    <mxGeometry x="563" y="175" width="50" height="30" as="geometry"/>
                </mxCell>
                <mxCell id="pxB9osVp5WJR0z6cPD1y-20" value="id" style="text;html=1;align=center;verticalAlign=middle;resizable=0;points=[];autosize=1;strokeColor=none;fillColor=none;" parent="1" vertex="1">
                    <mxGeometry x="586" y="189" width="30" height="30" as="geometry"/>
                </mxCell>
                <mxCell id="pxB9osVp5WJR0z6cPD1y-21" value="" style="endArrow=none;html=1;rounded=0;exitX=0.5;exitY=0;exitDx=0;exitDy=0;entryX=1;entryY=0.5;entryDx=0;entryDy=0;" parent="1" source="D14aTk9Bp_k3A3aO7_cn-44" target="pxB9osVp5WJR0z6cPD1y-22" edge="1">
                    <mxGeometry width="50" height="50" relative="1" as="geometry">
                        <mxPoint x="549.5" y="220" as="sourcePoint"/>
                        <mxPoint x="520" y="190" as="targetPoint"/>
                        <Array as="points"/>
                    </mxGeometry>
                </mxCell>
                <mxCell id="pxB9osVp5WJR0z6cPD1y-22" value="" style="ellipse;whiteSpace=wrap;html=1;aspect=fixed;fillColor=none;direction=south;" parent="1" vertex="1">
                    <mxGeometry x="539.5" y="172" width="10" height="10" as="geometry"/>
                </mxCell>
                <mxCell id="pxB9osVp5WJR0z6cPD1y-23" value="phone_number" style="text;html=1;align=center;verticalAlign=middle;resizable=0;points=[];autosize=1;strokeColor=none;fillColor=none;" parent="1" vertex="1">
                    <mxGeometry x="542" y="160" width="100" height="30" as="geometry"/>
                </mxCell>
                <mxCell id="2" value="" style="endArrow=none;html=1;rounded=0;entryX=0.5;entryY=1;entryDx=0;entryDy=0;exitX=0.999;exitY=0.7;exitDx=0;exitDy=0;exitPerimeter=0;" parent="1" target="3" edge="1">
                    <mxGeometry width="50" height="50" relative="1" as="geometry">
                        <mxPoint x="799.8900000000001" y="387" as="sourcePoint"/>
                        <mxPoint x="590.22" y="317" as="targetPoint"/>
                        <Array as="points"/>
                    </mxGeometry>
                </mxCell>
                <mxCell id="3" value="" style="ellipse;whiteSpace=wrap;html=1;aspect=fixed;fillColor=none;direction=south;" parent="1" vertex="1">
                    <mxGeometry x="825.22" y="382" width="10" height="10" as="geometry"/>
                </mxCell>
                <mxCell id="4" value="is_at_home" style="text;html=1;align=center;verticalAlign=middle;resizable=0;points=[];autosize=1;strokeColor=none;fillColor=none;" parent="1" vertex="1">
                    <mxGeometry x="822.56" y="372" width="90" height="30" as="geometry"/>
                </mxCell>
                <mxCell id="5" value="" style="endArrow=none;html=1;rounded=0;entryX=1;entryY=0.5;entryDx=0;entryDy=0;exitX=0.209;exitY=-0.002;exitDx=0;exitDy=0;exitPerimeter=0;" parent="1" target="6" edge="1">
                    <mxGeometry width="50" height="50" relative="1" as="geometry">
                        <mxPoint x="507.99" y="218.89999999999998" as="sourcePoint"/>
                        <mxPoint x="493.5" y="191.5" as="targetPoint"/>
                        <Array as="points"/>
                    </mxGeometry>
                </mxCell>
                <mxCell id="6" value="" style="ellipse;whiteSpace=wrap;html=1;aspect=fixed;fillColor=none;direction=south;" parent="1" vertex="1">
                    <mxGeometry x="503" y="191" width="10" height="10" as="geometry"/>
                </mxCell>
                <mxCell id="7" value="gender" style="text;html=1;align=center;verticalAlign=middle;resizable=0;points=[];autosize=1;strokeColor=none;fillColor=none;" parent="1" vertex="1">
                    <mxGeometry x="471" y="162" width="60" height="30" as="geometry"/>
                </mxCell>
                <mxCell id="22" value="" style="endArrow=none;html=1;rounded=0;entryX=0.5;entryY=1;entryDx=0;entryDy=0;exitX=1;exitY=1;exitDx=0;exitDy=0;" parent="1" source="D14aTk9Bp_k3A3aO7_cn-1" target="23" edge="1">
                    <mxGeometry width="50" height="50" relative="1" as="geometry">
                        <mxPoint x="800" y="404" as="sourcePoint"/>
                        <mxPoint x="590.22" y="334" as="targetPoint"/>
                        <Array as="points"/>
                    </mxGeometry>
                </mxCell>
                <mxCell id="23" value="" style="ellipse;whiteSpace=wrap;html=1;aspect=fixed;fillColor=none;direction=south;" parent="1" vertex="1">
                    <mxGeometry x="827.22" y="398" width="10" height="10" as="geometry"/>
                </mxCell>
                <mxCell id="24" value="symptoms" style="text;html=1;align=center;verticalAlign=middle;resizable=0;points=[];autosize=1;strokeColor=none;fillColor=none;" parent="1" vertex="1">
                    <mxGeometry x="827.2199999999999" y="388" width="80" height="30" as="geometry"/>
                </mxCell>
                <mxCell id="28" value="" style="endArrow=none;html=1;rounded=0;entryX=0.5;entryY=1;entryDx=0;entryDy=0;exitX=0.828;exitY=1.002;exitDx=0;exitDy=0;exitPerimeter=0;" parent="1" source="D14aTk9Bp_k3A3aO7_cn-1" target="29" edge="1">
                    <mxGeometry width="50" height="50" relative="1" as="geometry">
                        <mxPoint x="800" y="425" as="sourcePoint"/>
                        <mxPoint x="590.22" y="356" as="targetPoint"/>
                        <Array as="points">
                            <mxPoint x="798" y="424"/>
                        </Array>
                    </mxGeometry>
                </mxCell>
                <mxCell id="29" value="" style="ellipse;whiteSpace=wrap;html=1;aspect=fixed;fillColor=none;direction=south;" parent="1" vertex="1">
                    <mxGeometry x="826.22" y="419" width="10" height="10" as="geometry"/>
                </mxCell>
                <mxCell id="30" value="address" style="text;html=1;align=center;verticalAlign=middle;resizable=0;points=[];autosize=1;strokeColor=none;fillColor=none;" parent="1" vertex="1">
                    <mxGeometry x="824.22" y="409" width="70" height="30" as="geometry"/>
                </mxCell>
                <mxCell id="31" value="&lt;font style=&quot;font-size: 11px; color: light-dark(rgb(0, 0, 0), rgb(255, 255, 255));&quot;&gt;(0, 1)&lt;/font&gt;" style="text;html=1;align=center;verticalAlign=middle;resizable=0;points=[];autosize=1;strokeColor=none;fillColor=none;" parent="1" vertex="1">
                    <mxGeometry x="789" y="394" width="50" height="30" as="geometry"/>
                </mxCell>
                <mxCell id="32" value="&lt;font style=&quot;font-size: 11px; color: light-dark(rgb(0, 0, 0), rgb(255, 255, 255));&quot;&gt;(0, 1)&lt;/font&gt;" style="text;html=1;align=center;verticalAlign=middle;resizable=0;points=[];autosize=1;strokeColor=none;fillColor=none;" parent="1" vertex="1">
                    <mxGeometry x="788.22" y="415" width="50" height="30" as="geometry"/>
                </mxCell>
                <mxCell id="36" value="" style="endArrow=none;html=1;rounded=0;exitX=0.345;exitY=-0.002;exitDx=0;exitDy=0;entryX=1;entryY=0.5;entryDx=0;entryDy=0;exitPerimeter=0;" parent="1" source="D14aTk9Bp_k3A3aO7_cn-44" target="37" edge="1">
                    <mxGeometry width="50" height="50" relative="1" as="geometry">
                        <mxPoint x="529.5" y="227" as="sourcePoint"/>
                        <mxPoint x="504.5" y="198" as="targetPoint"/>
                        <Array as="points"/>
                    </mxGeometry>
                </mxCell>
                <mxCell id="37" value="" style="ellipse;whiteSpace=wrap;html=1;aspect=fixed;fillColor=none;direction=south;" parent="1" vertex="1">
                    <mxGeometry x="523" y="172" width="10" height="10" as="geometry"/>
                </mxCell>
                <mxCell id="39" value="address" style="text;html=1;align=center;verticalAlign=middle;resizable=0;points=[];autosize=1;strokeColor=none;fillColor=none;" parent="1" vertex="1">
                    <mxGeometry x="444" y="180" width="70" height="30" as="geometry"/>
                </mxCell>
                <mxCell id="40" value="&lt;font style=&quot;font-size: 11px; color: light-dark(rgb(0, 0, 0), rgb(255, 255, 255));&quot;&gt;(0, n)&lt;/font&gt;" style="text;html=1;align=center;verticalAlign=middle;resizable=0;points=[];autosize=1;strokeColor=none;fillColor=none;" parent="1" vertex="1">
                    <mxGeometry x="467" y="194" width="50" height="30" as="geometry"/>
                </mxCell>
            </root>
        </mxGraphModel>
    </diagram>
</mxfile>
